<?xml version="1.0" encoding="utf-8"?>
<!-- Generator: Adobe Illustrator 25.0.1, SVG Export Plug-In . SVG Version: 6.00 Build 0)  -->
<svg version="1.1" id="Layer_1" xmlns="http://www.w3.org/2000/svg" xmlns:xlink="http://www.w3.org/1999/xlink" x="0px" y="0px"
	 viewBox="0 0 430 430" style="enable-background:new 0 0 430 430;" xml:space="preserve">
<style type="text/css">
	.st0{fill:#5eccfe;}
</style>
<path class="st0" d="M215.4,216.7c-1.3,0-2.7-0.4-3.8-1.3L89.2,116c-2.6-2.1-3-5.9-0.9-8.4c2.1-2.6,5.9-3,8.4-0.9L215.4,203
	l117.9-94.2c2.6-2.1,6.4-1.6,8.4,0.9s1.6,6.4-0.9,8.4l-121.7,97.2C218,216.2,216.7,216.7,215.4,216.7z"/>
<path class="st0" d="M215.4,270.7c-1.3,0-2.7-0.4-3.8-1.3L89.2,170c-2.6-2.1-3-5.9-0.9-8.4s5.9-3,8.4-0.9L215.4,257l117.9-94.2
	c2.6-2.1,6.4-1.6,8.4,0.9s1.6,6.4-0.9,8.4l-121.7,97.2C218,270.2,216.7,270.7,215.4,270.7z"/>
<path class="st0" d="M215.4,324.7c-1.3,0-2.7-0.4-3.8-1.3L89.2,224c-2.6-2.1-3-5.9-0.9-8.4c2.1-2.6,5.9-3,8.4-0.9L215.4,311
	l117.9-94.2c2.6-2.1,6.4-1.6,8.4,0.9c2.1,2.6,1.6,6.4-0.9,8.4l-121.7,97.2C218,324.2,216.7,324.7,215.4,324.7z"/>
</svg>
